<svg width="60" height="51" viewBox="0 0 60 51" fill="none" xmlns="http://www.w3.org/2000/svg">
<path d="M51.0403 24.9867L46.667 5.33333H48.667V0H6.00033V10.6667H0.666992V16H6.00033V25.44C4.32648 26.9371 2.98653 28.7698 2.06765 30.819C1.14877 32.8681 0.671539 35.0876 0.666992 37.3333V42.6667H6.00033C6.00033 44.7884 6.84318 46.8232 8.34347 48.3235C9.84376 49.8238 11.8786 50.6667 14.0003 50.6667C16.1221 50.6667 18.1569 49.8238 19.6572 48.3235C21.1575 46.8232 22.0003 44.7884 22.0003 42.6667H38.0003C38.0003 44.7884 38.8432 46.8232 40.3435 48.3235C41.8438 49.8238 43.8786 50.6667 46.0003 50.6667C48.1221 50.6667 50.1569 49.8238 51.6572 48.3235C53.1575 46.8232 54.0003 44.7884 54.0003 42.6667H59.3337V37.3333C59.3342 34.6843 58.5456 32.0952 57.0685 29.8962C55.5914 27.6972 53.4928 25.988 51.0403 24.9867ZM14.0003 46.6667C13.2092 46.6667 12.4358 46.4321 11.778 45.9925C11.1202 45.553 10.6076 44.9283 10.3048 44.1974C10.0021 43.4665 9.92284 42.6622 10.0772 41.8863C10.2315 41.1104 10.6125 40.3977 11.1719 39.8382C11.7313 39.2788 12.444 38.8979 13.22 38.7435C13.9959 38.5892 14.8002 38.6684 15.5311 38.9712C16.262 39.2739 16.8867 39.7866 17.3262 40.4444C17.7657 41.1022 18.0003 41.8755 18.0003 42.6667C18.0003 43.7275 17.5789 44.7449 16.8288 45.4951C16.0786 46.2452 15.0612 46.6667 14.0003 46.6667ZM39.4137 24L36.347 19.4133L40.1337 16.88L37.2003 12.4533L25.2003 20.4533L28.1337 24.88L31.947 22.3467L35.0137 26.9867L32.667 29.3333H25.2003L11.3337 10.6667V5.33333H41.2003L45.3337 24M46.0003 46.6667C45.2092 46.6667 44.4358 46.4321 43.778 45.9925C43.1203 45.553 42.6076 44.9283 42.3048 44.1974C42.0021 43.4665 41.9228 42.6622 42.0772 41.8863C42.2315 41.1104 42.6125 40.3977 43.1719 39.8382C43.7313 39.2788 44.444 38.8979 45.22 38.7435C45.9959 38.5892 46.8002 38.6684 47.5311 38.9712C48.262 39.2739 48.8867 39.7866 49.3262 40.4444C49.7657 41.1022 50.0003 41.8755 50.0003 42.6667C50.0003 43.7275 49.5789 44.7449 48.8288 45.4951C48.0786 46.2452 47.0612 46.6667 46.0003 46.6667Z" fill="white"/>
</svg>
